<?xml version="1.0" encoding="utf-8"?>
<!-- Generator: Adobe Illustrator 16.0.0, SVG Export Plug-In . SVG Version: 6.00 Build 0)  -->
<!DOCTYPE svg PUBLIC "-//W3C//DTD SVG 1.1//EN" "http://www.w3.org/Graphics/SVG/1.1/DTD/svg11.dtd">
<svg version="1.1" id="Layer_1" xmlns="http://www.w3.org/2000/svg" xmlns:xlink="http://www.w3.org/1999/xlink" x="0px" y="0px"
	 width="100px" height="100px" viewBox="0 0 100 100" enable-background="new 0 0 100 100" xml:space="preserve">
<rect x="50" display="none" width="50" height="50"/>
<rect display="none" fill="#FF0000" width="50" height="50"/>
<rect y="50" display="none" width="50" height="50"/>
<path fill-rule="evenodd" clip-rule="evenodd" fill="#006699" d="M35.443,22.15l-11.286,11.3l0,0l-2.606-2.605l11.293-11.294
	L35.443,22.15L35.443,22.15L35.443,22.15L35.443,22.15z M36.15,21.443l1.729-1.731c0.391-0.39,0.388-1.025-0.005-1.416l-1.18-1.177
	c-0.393-0.392-1.025-0.395-1.416-0.003l-1.728,1.728L36.15,21.443L36.15,21.443L36.15,21.443L36.15,21.443z M20.904,31.61
	l-0.64,3.113l3.134-0.617L20.904,31.61L20.904,31.61L20.904,31.61L20.904,31.61z M31,28v9.996C31,39.11,30.105,40,29.003,40H13.998
	C12.891,40,12,39.103,12,37.996V17.003C12,15.89,12.895,15,13.998,15H15c0.002-1.109,0.898-2,2.003-2H18l0,0
	c0.001-1.662,1.348-3,3.01-3h0.98c1.66,0,3.009,1.343,3.01,3h0.997c1.107,0,2,0.895,2.003,2l0,0h1.003
	C30.109,15,31,15.897,31,17.003V20l3.58-3.58c0.793-0.793,2.052-0.789,2.83-0.01l1.18,1.18c0.776,0.776,0.774,2.046-0.01,2.83L31,28
	L31,28L31,28L31,28z M30,21v-3.997C30,16.449,29.545,16,29,16h-1l0,0c-0.003,1.109-0.898,2-2.003,2h-8.994c-1.108,0-2-0.895-2.003-2
	h-1c-0.552,0-1,0.439-1,1.003v20.994C13,38.551,13.455,39,14,39h15c0.553,0,1-0.438,1-1.003V29l-6,6l-5,1l1-5L30,21L30,21L30,21
	L30,21z M19,14v-1.002c0-1.1,0.897-1.998,2.005-1.998h0.99C23.105,11,24,11.895,24,12.998V14h2.005C26.555,14,27,14.447,27,14.999
	v1.002C27,16.557,26.555,17,26.005,17h-9.009C16.445,17,16,16.553,16,16.001v-1.002C16,14.443,16.446,14,16.996,14H19L19,14L19,14z
	 M21.5,14c0.276,0,0.5-0.224,0.5-0.5S21.776,13,21.5,13S21,13.224,21,13.5S21.224,14,21.5,14L21.5,14L21.5,14L21.5,14z M21.5,14"/>
<g>
	<polygon fill="none" stroke="#CC0000" stroke-miterlimit="10" points="89.5,37.5 60.5,37.5 75,13 	"/>
	<line fill="none" stroke="#CC0000" stroke-width="2" stroke-miterlimit="10" x1="75" y1="22" x2="75" y2="30"/>
	<line fill="none" stroke="#CC0000" stroke-width="2" stroke-miterlimit="10" x1="75" y1="32" x2="75" y2="34"/>
</g>
<polygon fill="none" stroke="#248800" stroke-miterlimit="10" points="25,59.784 29.874,69.66 40.772,71.244 32.886,78.931 
	34.748,89.784 25,84.66 15.252,89.784 17.114,78.931 9.228,71.244 20.126,69.66 "/>
</svg>
